<svg id="Focus" xmlns="http://www.w3.org/2000/svg" viewBox="0 0 64.95 64.17"><defs><style>.cls-1{fill:none;stroke:#1d1d1b;stroke-miterlimit:10;stroke-width:1.5px;}</style></defs><title>Focus_Finish</title><g id="Line_1"><path class="cls-1" d="M61.13,44.4,30.66,27.25s-8.53,7.53-10.2,17.48A36.67,36.67,0,0,0,25,68.08a28.11,28.11,0,0,0,6.91,7.51l.24-35.65" transform="translate(-19.31 -19.01)"/></g><g id="Line_2"><path class="cls-1" d="M52.32,39.48,21,57.86s1.82,9.59,8.08,15.46c4.49,4.22,10,8.42,22.63,9.08,7.28.39,14.07-3.32,14.07-3.32L32.31,62.83" transform="translate(-19.31 -19.01)"/></g><g id="Line_3"><path class="cls-1" d="M42.27,45.38V81s9.5,2.61,18.86,0c9-2.48,15.78-10.42,18-14.23,5-8.62,4-12.54,4-12.54l-31.38,18" transform="translate(-19.31 -19.01)"/></g><g id="Line_4"><path class="cls-1" d="M42.27,57,73.06,74S79.49,67.27,82,61c3.57-9.1.25-20.59-3.32-26.29a34.15,34.15,0,0,0-8.17-8.55l.27,35.23" transform="translate(-19.31 -19.01)"/></g><g id="Line_5"><path class="cls-1" d="M52,62.39,82.47,44s-2.66-9.58-8-14.82a30.82,30.82,0,0,0-22.72-9.44A30.55,30.55,0,0,0,39.27,22l30.88,16" transform="translate(-19.31 -19.01)"/></g><g id="Line_6"><path class="cls-1" d="M61.56,56.13V21.2s-10.13-2.35-17.86-.66S30.19,26.83,25.45,32.77a26,26,0,0,0-5.22,13.72L53.42,29.38" transform="translate(-19.31 -19.01)"/></g></svg>