<svg xmlns="http://www.w3.org/2000/svg" viewBox="0 0 185.69 178.39">
	<defs>
		<style>
			.cls-1 {
				fill: none;
				stroke: #1d1d1b;
				stroke-miterlimit: 10;
				stroke-width: 2px;
			}
		</style>
	</defs>
	<title>Mask</title>

	<g id="Mask">
		<path id="Cape" class="cls-1" d="M11.19,140a1.25,1.25,0,0,0,1.92,1.5c6.64-5.54,19-15.18,24.07-14.4,7,1.1,19.51,12.94,30.92,11.85s23.45-12.18,31.9-11.91,21.61,12.13,30.6,11.47,31.58-14.26,38.59-12.72c4.95,1.08,16.81,10.29,23.39,15.64a1.32,1.32,0,0,0,2-1.6c-7.78-16.06-31.75-62.63-50.41-68.43-22.58-7-54.76-7.8-80.42,0C42.53,77.87,18.75,124.23,11.19,140Z" transform="translate(-10.06 -7.53)" />

		<path id="Right_eye" class="cls-1" d="M59,99.13S67,86,76.15,86.36,94.87,93.68,95,96.23,87.21,108,78.87,108,65.43,100.49,59,99.13Z" transform="translate(-10.06 -7.53)" />


		<path id="Left_eye" class="cls-1" d="M147.3,100s-8-13.11-17.19-12.77-18.73,7.32-18.9,9.88,7.83,11.74,16.17,11.74S140.83,101.34,147.3,100Z" transform="translate(-10.06 -7.53)" />
	</g>

	<g id="Circle">

		<path id="Big_circle" class="cls-1" d="M151.63,36.53c20.46,18.13,38.18,40.39,37.49,69.18-1,42.14-36.31,76.88-80.47,79.09C59.56,187.26,19,150.05,19,103.8c0-29.31,16.3-55,40.73-69.24,0,0,13.55,5.9,14.23-8,.18-3.68.69-14,.69-14l-.69,4.39A1.57,1.57,0,0,1,72,18.21l-4.4-1L79.44,20.3l-5.79-.62s-1.12,12,1.62,12.52C79.9,33,84.2,31,84.49,27.42a3,3,0,0,0-1.92-2.93c-1.43-.58-3.47-1-4.83.54-4,4.49.35,9.44,5.11,8.2C91.34,31,91.23,17.34,90.16,14c0,0,1.22,3.92-.22,4.86s-4.42-1-4.42-1,2.89,1.89,4.33,1.72a47.8,47.8,0,0,0,5.41-1.46l-4.15,2.24s-3.17,13,.09,13.16c0,0,7.76,1.89,9.21-2.06s.82-5.68-3.25-6.11c-3.25-.35-5.15,1.55-4.6,5.42s6,3,7.5,2.52S101.76,23,101.76,23s-1.89,9.81.36,10.76,11.73-5.45,13.09-14.07-2.39-16.09-5.55-7S106.82,31,110.79,33.4s14.46-7.58,15.52-14.88c1.22-8.39-3.94-10.74-7.19-2s-3.51,16.16,2.18,18,7.88.1,8.08-3.35a11.17,11.17,0,0,0,.21-2.63c0-1.49-1.11,6.89,1.8,6.76s5.21-1.23,5.21-6.13,2.54,21.09-2.17,25.74c-3.58,3.54-2.37-9.35.54-14.9,1.77-3.37,5.51-5.21,7.7-6a5.09,5.09,0,0,1,3.27-.1A18.11,18.11,0,0,1,151.63,36.53Z" transform="translate(-10.06 -7.53)" />

		<path id="Small_circle" class="cls-1" d="M141.63,50a6.33,6.33,0,0,1,2.25.84c18.2,11.14,30.36,30.22,30.36,52.77,0,36.75-31.94,66.55-71.34,66.55s-71.34-29.8-71.34-66.55c0-24,15.62-41.57,36.1-53.26,0,0-.19-7.85,3.38-8.53s2.56,8.34,2.56,8.34-.17-9.37,3.4-9,1.28,8.28,3.57,9.19c2,.8,3.38-3.59,7.32-4.77,3.41-1,3.24-8.56-1.36-5.69-5.65,3.51-1.53,13,3.07,10.63,0,0,6-5.88,5.45-9s6.56,2,7.85-.69c1.15-2.38-7.32,10.12-1.73,9.79,5.79-.34,7.48,2.45,11.06.43,1.37-.77,4.34-9.11-1.44-8.94,0,0-2.9-.76-4.85,3.07s1.73,6.22,4.79,6.47S117,34.19,117,34.19s-4.16,17.69.29,18.35c2.9.43,2.77-1,3.45-4.22,0,0,.51-6.47.44-1.88-.06,4.18-1.71,6,1.44,6.22,3,.17,3.56-.49,4.08-5.36,1-9.18,4.35,7.5.4,14.75-3.66,6.7-4.91-.11-.74-6.75,4.43-7,5.38-6,7.17-6.15A40.58,40.58,0,0,1,141.63,50Z" transform="translate(-10.06 -7.53)" />
	</g>
</svg>